# xmcd
#
# Track frame offsets:
#	150
#	52119
#	75040
#	90583
#	109946
#	123162
#	141200
#	156632
#	169618
#	188444
#	223996
#	243778
#	255011
#	271203
#	291128
#	302900
#	316488
#	333462
#
# Disc length: 4676 seconds
#
# Revision: 0
# Processed by: cddbd v1.5.2PL0 Copyright (c) Steve Scherf et al.
# Submitted via: EZCDAudioConverter 7.0.6.1
#
DISCID=f6124212
DTITLE=Fairport Convention - Come All Ye 5/7
DYEAR=1900
DGENRE=
TTITLE0=Sloth [Live at Sydney Opera House, 1974]
TTITLE1=John The Gun [BBC Session]
TTITLE2=Down In The Flood [BBC Session]
TTITLE3=Rising For The Moon [BBC Session]
TTITLE4=After Halloween [Byfield Home Demo - Alternate Take]
TTITLE5=Restless
TTITLE6=White Dress [Live On LWT 8/9/75]
TTITLE7=Stranger To Himself
TTITLE8=Dawn [Alternate Version]
TTITLE9=One More Chance [Alternate Take]
TTITLE10=All Along The Watchtower [Live At Chateau Neuf, Oslo, 1975]
TTITLE11=When First Into This Country
TTITLE12=Sandy's Song (A.K.A. Take Away The Load)
TTITLE13=Royal Seleccion No. 13 (Medley) [Live on A World Of Music 11/26/76]
TTITLE14=Adieu, Adieu [Live on A World Of Music 11/26/76]
TTITLE15=Reynard The Fox
TTITLE16=Poor Ditching Boy [Live In Concert On STV, Scotland, 1976]
TTITLE17=Flowers Of The Forest [Live In Concert On STV, Scotland, 1976]
EXTD=
EXTT0=
EXTT1=
EXTT2=
EXTT3=
EXTT4=
EXTT5=
EXTT6=
EXTT7=
EXTT8=
EXTT9=
EXTT10=
EXTT11=
EXTT12=
EXTT13=
EXTT14=
EXTT15=
EXTT16=
EXTT17=
PLAYORDER=
